<svg xmlns="http://www.w3.org/2000/svg" width="34" height="24" viewBox="0 0 34 24">
  <path fill="#FFF" d="M17,10.6522968 L12.5643816,8.03081272 L17,0.670954064 L21.4356184,8.03081272 L17,10.6522968 Z M3.06600707,22.3276325 C3.06600707,22.4021201 3.00353357,22.4645936 2.92904594,22.4645936 L0.273922261,22.4645936 C0.341201413,23.1205654 0.833780919,23.7188693 1.52819788,23.7188693 C2.0039576,23.7188693 2.35477032,23.5386572 2.6214841,23.1590106 C2.65992933,23.1061484 2.71759717,23.0725088 2.78968198,23.1037456 C2.82812721,23.1205654 2.85696113,23.1566078 2.86416961,23.1998587 C2.87137809,23.2431095 2.85936396,23.2671378 2.84734982,23.2911661 C2.58063604,23.7573145 2.04961131,23.985583 1.52819788,23.985583 C0.63434629,23.985583 0,23.1878445 0,22.3324382 C0,21.4770318 0.636749117,20.6792879 1.52819788,20.6792879 C2.41964664,20.6768905 3.06600707,21.4722261 3.06600707,22.3276325 Z M2.7824735,22.195477 C2.72480565,21.5395053 2.22261484,20.9412014 1.52819788,20.9412014 C0.833780919,20.9412014 0.341201413,21.5395053 0.273922261,22.195477 L2.7824735,22.195477 Z M6.28579505,20.7441696 C6.36268551,20.7441696 6.41795053,20.8114488 6.41795053,20.8763251 C6.41795053,20.9532155 6.36028269,21.0084806 6.28579505,21.0084806 L5.5745583,21.0084806 L5.5745583,23.8005654 C5.5745583,23.8678445 5.51689046,23.9327208 5.44240283,23.9327208 C5.36551237,23.9327208 5.31024735,23.8654417 5.31024735,23.8005654 L5.31024735,21.0084806 L4.6254417,21.0084806 C4.54855124,21.0084806 4.49328622,20.9508127 4.49328622,20.8763251 C4.49328622,20.8090459 4.55095406,20.7441696 4.6254417,20.7441696 L5.31024735,20.7441696 L5.31024735,19.7229682 C5.31024735,19.6580919 5.35349823,19.5980212 5.41837456,19.5884099 C5.50727915,19.5739929 5.57696113,19.6340636 5.57696113,19.7181625 L5.57696113,20.7441696 L6.28579505,20.7441696 Z M10.6277032,22.0921555 L10.6277032,23.7837456 C10.6277032,23.860636 10.560424,23.9159011 10.4955477,23.9159011 C10.4186572,23.9159011 10.3633922,23.8582332 10.3633922,23.7837456 L10.3633922,22.0921555 C10.3633922,21.5226855 10.0414134,20.9532155 9.40466431,20.9532155 C8.58770318,20.9532155 8.23689046,21.6644523 8.284947,22.3973145 C8.284947,22.4165371 8.2945583,22.500636 8.2945583,22.5102473 L8.2945583,23.7789399 C8.2945583,23.8438163 8.25130742,23.9038869 8.1864311,23.9134982 C8.0975265,23.9279152 8.02784452,23.8678445 8.02784452,23.7837456 L8.02784452,18.2284099 C8.02784452,18.1611307 8.08551237,18.0962544 8.16,18.0962544 C8.23689046,18.0962544 8.29215548,18.1635336 8.29215548,18.2284099 L8.29215548,21.3713074 C8.52042403,20.9628269 8.92890459,20.6865018 9.40226148,20.6865018 C10.1807774,20.6865018 10.6277032,21.3713074 10.6277032,22.0921555 Z M15.3853004,22.3276325 C15.3853004,22.4021201 15.3228269,22.4645936 15.2483392,22.4645936 L12.5932155,22.4645936 C12.6604947,23.1205654 13.1530742,23.7188693 13.8474912,23.7188693 C14.3232509,23.7188693 14.6740636,23.5386572 14.9407774,23.1590106 C14.9792226,23.1061484 15.0368905,23.0725088 15.1089753,23.1037456 C15.1474205,23.1205654 15.1762544,23.1566078 15.1834629,23.1998587 C15.1906714,23.2431095 15.1786572,23.2671378 15.1666431,23.2911661 C14.8999293,23.7573145 14.3689046,23.985583 13.8474912,23.985583 C12.9536396,23.985583 12.3192933,23.1878445 12.3192933,22.3324382 C12.3192933,21.4770318 12.9560424,20.6792879 13.8474912,20.6792879 C14.7389399,20.6768905 15.3828975,21.4722261 15.3853004,22.3276325 Z M15.099364,22.195477 C15.0416961,21.5395053 14.5395053,20.9412014 13.8450883,20.9412014 C13.1506714,20.9412014 12.6580919,21.5395053 12.5908127,22.195477 L15.099364,22.195477 Z M18.6435336,20.8667138 C18.6435336,20.9532155 18.595477,20.9988693 18.5209894,21.0084806 C17.7424735,21.1214134 17.3916608,21.7581625 17.3916608,22.500636 L17.3916608,23.7693286 C17.3916608,23.8342049 17.3484099,23.8942756 17.2835336,23.9038869 C17.194629,23.9183039 17.124947,23.8582332 17.124947,23.7741343 L17.124947,20.8787279 C17.124947,20.8138516 17.1681979,20.7537809 17.2330742,20.7441696 C17.3219788,20.7297527 17.3916608,20.7898233 17.3916608,20.8739223 L17.3916608,21.4626148 C17.610318,21.0925795 18.0476325,20.7417668 18.5017668,20.7417668 C18.5666431,20.7441696 18.6435336,20.7898233 18.6435336,20.8667138 Z M23.0022615,22.3276325 C23.0022615,22.4021201 22.939788,22.4645936 22.8653004,22.4645936 L20.2101767,22.4645936 C20.2774558,23.1205654 20.7700353,23.7188693 21.4644523,23.7188693 C21.940212,23.7188693 22.2910247,23.5386572 22.5577385,23.1590106 C22.5961837,23.1061484 22.6538516,23.0725088 22.7259364,23.1037456 C22.7643816,23.1205654 22.7932155,23.1566078 22.800424,23.1998587 C22.8076325,23.2431095 22.7956184,23.2671378 22.7836042,23.2911661 C22.5168905,23.7573145 21.9858657,23.985583 21.4644523,23.985583 C20.5706007,23.985583 19.9362544,23.1878445 19.9362544,22.3324382 C19.9362544,21.4770318 20.5730035,20.6792879 21.4644523,20.6792879 C22.3559011,20.6768905 22.9998587,21.4722261 23.0022615,22.3276325 Z M22.7163251,22.195477 C22.6586572,21.5395053 22.1564664,20.9412014 21.4620495,20.9412014 C20.7676325,20.9412014 20.275053,21.5395053 20.2077739,22.195477 L22.7163251,22.195477 Z M27.2865018,20.9003534 L27.2865018,23.8005654 C27.2865018,23.8774558 27.2192226,23.9327208 27.1543463,23.9327208 C27.0774558,23.9327208 27.0221908,23.875053 27.0221908,23.8005654 L27.0221908,23.250318 C26.8035336,23.6876325 26.4142756,24 25.9192933,24 C25.1311661,24 24.6938516,23.3151943 24.6938516,22.5943463 L24.6938516,20.8931449 C24.6938516,20.8258657 24.7515194,20.7609894 24.8260071,20.7609894 C24.9028975,20.7609894 24.9581625,20.8282686 24.9581625,20.8931449 L24.9581625,22.5943463 C24.9581625,23.1638163 25.2801413,23.7332862 25.9168905,23.7332862 C26.810742,23.7332862 27.019788,22.8971025 27.019788,21.9768198 L27.019788,20.8931449 C27.019788,20.8162544 27.0966784,20.739364 27.1903887,20.7657951 C27.2480565,20.7850177 27.2865018,20.8402827 27.2865018,20.9003534 Z M34,22.0825442 L34,23.7837456 C34,23.860636 33.9327208,23.9159011 33.8678445,23.9159011 C33.7909541,23.9159011 33.735689,23.8582332 33.735689,23.7837456 L33.735689,22.0825442 C33.735689,21.5130742 33.4137102,20.9532155 32.7769611,20.9532155 C31.9792226,20.9532155 31.6740636,21.8086219 31.6740636,22.4718021 L31.6740636,23.7813428 C31.6740636,23.8582332 31.6067845,23.9134982 31.5419081,23.9134982 C31.4650177,23.9134982 31.4097527,23.8558304 31.4097527,23.7813428 L31.4097527,22.0801413 C31.4097527,21.5106714 31.0877739,20.9508127 30.4510247,20.9508127 C29.6436749,20.9508127 29.3120848,21.5875618 29.3409187,22.4333569 C29.3409187,22.4525795 29.35053,22.4910247 29.3409187,22.500636 L29.3409187,23.7789399 C29.3409187,23.8438163 29.2976678,23.9038869 29.2327915,23.9134982 C29.1438869,23.9279152 29.0742049,23.8678445 29.0742049,23.7837456 L29.0742049,20.8787279 C29.0742049,20.8138516 29.1174558,20.7537809 29.1823322,20.7441696 C29.2712367,20.7297527 29.3409187,20.7898233 29.3409187,20.8739223 L29.3409187,21.3592933 C29.5691873,20.9508127 29.9776678,20.6840989 30.4510247,20.6840989 C30.9916608,20.6840989 31.4097527,21.0253004 31.5803534,21.529894 C31.7990106,21.0349117 32.2267138,20.6840989 32.7769611,20.6840989 C33.5530742,20.6865018 34,21.3616961 34,22.0825442 Z M17,15.1215548 L12.5643816,8.87180212 L17,11.4908834 L21.4380212,8.87180212 L17,15.1215548 Z"/>
</svg>
